<?xml version="1.0" encoding="UTF-8" standalone="no"?>
<!DOCTYPE svg PUBLIC "-//W3C//DTD SVG 1.1//EN"
 "http://www.w3.org/Graphics/SVG/1.1/DTD/svg11.dtd">
<!-- Generated by graphviz version 2.43.0 (0)
 -->
<!-- Title: G Pages: 1 -->
<svg width="321pt" height="515pt"
 viewBox="0.00 0.00 321.08 514.56" xmlns="http://www.w3.org/2000/svg" xmlns:xlink="http://www.w3.org/1999/xlink">
<g id="graph0" class="graph" transform="scale(1 1) rotate(0) translate(4 510.56)">
<title>G</title><style>.edge>path:hover{stroke-width:8}</style>
<polygon fill="white" stroke="transparent" points="-4,4 -4,-510.56 317.08,-510.56 317.08,4 -4,4"/>
<!-- hyperfocus___main__ -->
<g id="node1" class="node">
<title>hyperfocus___main__</title><style>.edge>path:hover{stroke-width:8}</style>
<ellipse fill="#ac4949" stroke="black" cx="148.06" cy="-21.21" rx="52.15" ry="21.43"/>
<text text-anchor="middle" x="148.06" y="-24.21" font-family="Helvetica,sans-Serif" font-size="10.00" fill="#ffffff">hyperfocus.</text>
<text text-anchor="middle" x="148.06" y="-13.21" font-family="Helvetica,sans-Serif" font-size="10.00" fill="#ffffff">__main__</text>
</g>
<!-- hyperfocus_cli -->
<g id="node2" class="node">
<title>hyperfocus_cli</title><style>.edge>path:hover{stroke-width:8}</style>
<ellipse fill="#993333" stroke="black" cx="148.06" cy="-96.43" rx="50.07" ry="18"/>
<text text-anchor="middle" x="148.06" y="-93.93" font-family="Helvetica,sans-Serif" font-size="10.00" fill="#ffffff">hyperfocus.cli</text>
</g>
<!-- hyperfocus_cli&#45;&gt;hyperfocus___main__ -->
<g id="edge1" class="edge">
<title>hyperfocus_cli&#45;&gt;hyperfocus___main__</title><style>.edge>path:hover{stroke-width:8}</style>
<path fill="none" stroke="black" d="M148.06,-78.08C148.06,-70.5 148.06,-61.39 148.06,-52.74"/>
<polygon fill="#993333" stroke="black" points="151.56,-52.56 148.06,-42.56 144.56,-52.56 151.56,-52.56"/>
</g>
<!-- hyperfocus_config -->
<g id="node3" class="node">
<title>hyperfocus_config</title><style>.edge>path:hover{stroke-width:8}</style>
<ellipse fill="#c43131" stroke="black" cx="68.06" cy="-250.07" rx="52.15" ry="21.43"/>
<text text-anchor="middle" x="68.06" y="-253.07" font-family="Helvetica,sans-Serif" font-size="10.00" fill="#ffffff">hyperfocus.</text>
<text text-anchor="middle" x="68.06" y="-242.07" font-family="Helvetica,sans-Serif" font-size="10.00" fill="#ffffff">config</text>
</g>
<!-- hyperfocus_config&#45;&gt;hyperfocus_cli -->
<g id="edge2" class="edge">
<title>hyperfocus_config&#45;&gt;hyperfocus_cli</title><style>.edge>path:hover{stroke-width:8}</style>
<path fill="none" stroke="black" d="M40.58,-231.73C27.84,-222.02 14,-208.68 7.06,-192.85 -0.51,-175.58 -3.67,-165.93 7.06,-150.43 25.72,-123.48 59.91,-110.21 89.94,-103.69"/>
<polygon fill="#c43131" stroke="black" points="90.8,-107.09 99.94,-101.73 89.45,-100.22 90.8,-107.09"/>
</g>
<!-- hyperfocus_session -->
<g id="node9" class="node">
<title>hyperfocus_session</title><style>.edge>path:hover{stroke-width:8}</style>
<ellipse fill="#a83838" stroke="black" cx="68.06" cy="-171.64" rx="52.15" ry="21.43"/>
<text text-anchor="middle" x="68.06" y="-174.64" font-family="Helvetica,sans-Serif" font-size="10.00" fill="#ffffff">hyperfocus.</text>
<text text-anchor="middle" x="68.06" y="-163.64" font-family="Helvetica,sans-Serif" font-size="10.00" fill="#ffffff">session</text>
</g>
<!-- hyperfocus_config&#45;&gt;hyperfocus_session -->
<g id="edge3" class="edge">
<title>hyperfocus_config&#45;&gt;hyperfocus_session</title><style>.edge>path:hover{stroke-width:8}</style>
<path fill="none" stroke="black" d="M68.06,-228.59C68.06,-220.73 68.06,-211.58 68.06,-202.99"/>
<polygon fill="#c43131" stroke="black" points="71.56,-202.91 68.06,-192.91 64.56,-202.91 71.56,-202.91"/>
</g>
<!-- hyperfocus_database -->
<g id="node4" class="node">
<title>hyperfocus_database</title><style>.edge>path:hover{stroke-width:8}</style>
<ellipse fill="#d02424" stroke="black" cx="148.06" cy="-406.92" rx="52.15" ry="21.43"/>
<text text-anchor="middle" x="148.06" y="-409.92" font-family="Helvetica,sans-Serif" font-size="10.00" fill="#ffffff">hyperfocus.</text>
<text text-anchor="middle" x="148.06" y="-398.92" font-family="Helvetica,sans-Serif" font-size="10.00" fill="#ffffff">database</text>
</g>
<!-- hyperfocus_database&#45;&gt;hyperfocus_cli -->
<g id="edge4" class="edge">
<title>hyperfocus_database&#45;&gt;hyperfocus_cli</title><style>.edge>path:hover{stroke-width:8}</style>
<path fill="none" stroke="black" d="M148.06,-249.07C136.21,-206.9 139.76,-155.49 143.7,-124.66"/>
<polygon fill="#d02424" stroke="black" points="147.18,-125.05 145.09,-114.67 140.25,-124.09 147.18,-125.05"/>
</g>
<!-- hyperfocus_models -->
<g id="node7" class="node">
<title>hyperfocus_models</title><style>.edge>path:hover{stroke-width:8}</style>
<ellipse fill="#c82323" stroke="black" cx="228.06" cy="-328.49" rx="52.15" ry="21.43"/>
<text text-anchor="middle" x="228.06" y="-331.49" font-family="Helvetica,sans-Serif" font-size="10.00" fill="#ffffff">hyperfocus.</text>
<text text-anchor="middle" x="228.06" y="-320.49" font-family="Helvetica,sans-Serif" font-size="10.00" fill="#ffffff">models</text>
</g>
<!-- hyperfocus_database&#45;&gt;hyperfocus_models -->
<g id="edge5" class="edge">
<title>hyperfocus_database&#45;&gt;hyperfocus_models</title><style>.edge>path:hover{stroke-width:8}</style>
<path fill="none" stroke="black" d="M167.84,-387.03C177.84,-377.47 190.13,-365.73 200.99,-355.36"/>
<polygon fill="#d02424" stroke="black" points="203.42,-357.87 208.24,-348.43 198.59,-352.81 203.42,-357.87"/>
</g>
<!-- hyperfocus_database&#45;&gt;hyperfocus_session -->
<g id="edge6" class="edge">
<title>hyperfocus_database&#45;&gt;hyperfocus_session</title><style>.edge>path:hover{stroke-width:8}</style>
<path fill="none" stroke="black" d="M151.05,-385.52C154.77,-355.56 159.37,-298.12 148.06,-251.07"/>
<path fill="none" stroke="black" d="M148.06,-249.07C141.76,-226.66 123.51,-208.34 106.02,-195.26"/>
<polygon fill="#d02424" stroke="black" points="107.74,-192.19 97.55,-189.27 103.69,-197.9 107.74,-192.19"/>
</g>
<!-- hyperfocus_display -->
<g id="node5" class="node">
<title>hyperfocus_display</title><style>.edge>path:hover{stroke-width:8}</style>
<ellipse fill="#b83d3d" stroke="black" cx="228.06" cy="-171.64" rx="52.15" ry="21.43"/>
<text text-anchor="middle" x="228.06" y="-174.64" font-family="Helvetica,sans-Serif" font-size="10.00" fill="#ffffff">hyperfocus.</text>
<text text-anchor="middle" x="228.06" y="-163.64" font-family="Helvetica,sans-Serif" font-size="10.00" fill="#ffffff">display</text>
</g>
<!-- hyperfocus_display&#45;&gt;hyperfocus_cli -->
<g id="edge7" class="edge">
<title>hyperfocus_display&#45;&gt;hyperfocus_cli</title><style>.edge>path:hover{stroke-width:8}</style>
<path fill="none" stroke="black" d="M207.46,-151.79C197.03,-142.24 184.28,-130.57 173.26,-120.49"/>
<polygon fill="#b83d3d" stroke="black" points="175.35,-117.66 165.61,-113.49 170.63,-122.82 175.35,-117.66"/>
</g>
<!-- hyperfocus_exceptions -->
<g id="node6" class="node">
<title>hyperfocus_exceptions</title><style>.edge>path:hover{stroke-width:8}</style>
<ellipse fill="#db2f2f" stroke="black" cx="148.06" cy="-485.35" rx="52.15" ry="21.43"/>
<text text-anchor="middle" x="148.06" y="-488.35" font-family="Helvetica,sans-Serif" font-size="10.00" fill="#ffffff">hyperfocus.</text>
<text text-anchor="middle" x="148.06" y="-477.35" font-family="Helvetica,sans-Serif" font-size="10.00" fill="#ffffff">exceptions</text>
</g>
<!-- hyperfocus_exceptions&#45;&gt;hyperfocus_config -->
<g id="edge8" class="edge">
<title>hyperfocus_exceptions&#45;&gt;hyperfocus_config</title><style>.edge>path:hover{stroke-width:8}</style>
<path fill="none" stroke="black" d="M121.6,-466.92C108.96,-457.1 94.9,-443.7 87.06,-428.13 63.39,-381.14 62.8,-318.36 65.06,-281.57"/>
<polygon fill="#db2f2f" stroke="black" points="68.56,-281.7 65.79,-271.47 61.58,-281.19 68.56,-281.7"/>
</g>
<!-- hyperfocus_exceptions&#45;&gt;hyperfocus_database -->
<g id="edge9" class="edge">
<title>hyperfocus_exceptions&#45;&gt;hyperfocus_database</title><style>.edge>path:hover{stroke-width:8}</style>
<path fill="none" stroke="black" d="M148.06,-463.86C148.06,-456.01 148.06,-446.86 148.06,-438.27"/>
<polygon fill="#db2f2f" stroke="black" points="151.56,-438.19 148.06,-428.19 144.56,-438.19 151.56,-438.19"/>
</g>
<!-- hyperfocus_exceptions&#45;&gt;hyperfocus_models -->
<g id="edge10" class="edge">
<title>hyperfocus_exceptions&#45;&gt;hyperfocus_models</title><style>.edge>path:hover{stroke-width:8}</style>
<path fill="none" stroke="black" d="M173.99,-466.64C186.49,-456.75 200.58,-443.35 209.06,-428.13 220.7,-407.24 225.32,-380.44 227.1,-360.04"/>
<polygon fill="#db2f2f" stroke="black" points="230.6,-360.25 227.8,-350.03 223.61,-359.76 230.6,-360.25"/>
</g>
<!-- hyperfocus_models&#45;&gt;hyperfocus_cli -->
<g id="edge11" class="edge">
<title>hyperfocus_models&#45;&gt;hyperfocus_cli</title><style>.edge>path:hover{stroke-width:8}</style>
<path fill="none" stroke="black" d="M308.06,-249.07C315.26,-205 317.85,-184.55 289.06,-150.43 268.09,-125.57 234.23,-112.36 204.95,-105.34"/>
<polygon fill="#c82323" stroke="black" points="205.33,-101.84 194.81,-103.11 203.82,-108.68 205.33,-101.84"/>
</g>
<!-- hyperfocus_models&#45;&gt;hyperfocus_display -->
<g id="edge12" class="edge">
<title>hyperfocus_models&#45;&gt;hyperfocus_display</title><style>.edge>path:hover{stroke-width:8}</style>
<path fill="none" stroke="black" d="M259.35,-311.26C279.87,-298.27 303.7,-277.8 308.06,-251.07"/>
<path fill="none" stroke="black" d="M308.06,-249.07C312.01,-224.91 292.2,-205.86 271.31,-192.83"/>
<polygon fill="#c82323" stroke="black" points="273.07,-189.8 262.67,-187.78 269.54,-195.85 273.07,-189.8"/>
</g>
<!-- hyperfocus_services -->
<g id="node8" class="node">
<title>hyperfocus_services</title><style>.edge>path:hover{stroke-width:8}</style>
<ellipse fill="#b83d3d" stroke="black" cx="228.06" cy="-250.07" rx="52.15" ry="21.43"/>
<text text-anchor="middle" x="228.06" y="-253.07" font-family="Helvetica,sans-Serif" font-size="10.00" fill="#ffffff">hyperfocus.</text>
<text text-anchor="middle" x="228.06" y="-242.07" font-family="Helvetica,sans-Serif" font-size="10.00" fill="#ffffff">services</text>
</g>
<!-- hyperfocus_models&#45;&gt;hyperfocus_services -->
<g id="edge13" class="edge">
<title>hyperfocus_models&#45;&gt;hyperfocus_services</title><style>.edge>path:hover{stroke-width:8}</style>
<path fill="none" stroke="black" d="M228.06,-307.01C228.06,-299.15 228.06,-290.01 228.06,-281.42"/>
<polygon fill="#c82323" stroke="black" points="231.56,-281.34 228.06,-271.34 224.56,-281.34 231.56,-281.34"/>
</g>
<!-- hyperfocus_services&#45;&gt;hyperfocus_session -->
<g id="edge14" class="edge">
<title>hyperfocus_services&#45;&gt;hyperfocus_session</title><style>.edge>path:hover{stroke-width:8}</style>
<path fill="none" stroke="black" d="M195.3,-233.42C170.6,-221.62 136.54,-205.35 109.88,-192.61"/>
<polygon fill="#b83d3d" stroke="black" points="111.31,-189.42 100.78,-188.27 108.3,-195.74 111.31,-189.42"/>
</g>
<!-- hyperfocus_session&#45;&gt;hyperfocus_cli -->
<g id="edge15" class="edge">
<title>hyperfocus_session&#45;&gt;hyperfocus_cli</title><style>.edge>path:hover{stroke-width:8}</style>
<path fill="none" stroke="black" d="M88.66,-151.79C99.09,-142.24 111.85,-130.57 122.86,-120.49"/>
<polygon fill="#a83838" stroke="black" points="125.5,-122.82 130.51,-113.49 120.77,-117.66 125.5,-122.82"/>
</g>
</g>
</svg>
