<?xml version="1.0" encoding="UTF-8" standalone="no"?>
<!DOCTYPE svg PUBLIC "-//W3C//DTD SVG 1.1//EN"
 "http://www.w3.org/Graphics/SVG/1.1/DTD/svg11.dtd">
<!-- Generated by graphviz version 2.43.0 (0)
 -->
<!-- Title: G Pages: 1 -->
<svg width="352pt" height="436pt"
 viewBox="0.00 0.00 352.36 436.13" xmlns="http://www.w3.org/2000/svg" xmlns:xlink="http://www.w3.org/1999/xlink">
<g id="graph0" class="graph" transform="scale(1 1) rotate(0) translate(4 432.13)">
<title>G</title><style>.edge>path:hover{stroke-width:8}</style>
<polygon fill="white" stroke="transparent" points="-4,4 -4,-432.13 348.36,-432.13 348.36,4 -4,4"/>
<!-- hyperfocus___main__ -->
<g id="node1" class="node">
<title>hyperfocus___main__</title><style>.edge>path:hover{stroke-width:8}</style>
<ellipse fill="#ac4949" stroke="black" cx="190.33" cy="-21.21" rx="52.15" ry="21.43"/>
<text text-anchor="middle" x="190.33" y="-24.21" font-family="Helvetica,sans-Serif" font-size="10.00" fill="#ffffff">hyperfocus.</text>
<text text-anchor="middle" x="190.33" y="-13.21" font-family="Helvetica,sans-Serif" font-size="10.00" fill="#ffffff">__main__</text>
</g>
<!-- hyperfocus_cli -->
<g id="node2" class="node">
<title>hyperfocus_cli</title><style>.edge>path:hover{stroke-width:8}</style>
<ellipse fill="#993333" stroke="black" cx="190.33" cy="-96.43" rx="50.07" ry="18"/>
<text text-anchor="middle" x="190.33" y="-93.93" font-family="Helvetica,sans-Serif" font-size="10.00" fill="#ffffff">hyperfocus.cli</text>
</g>
<!-- hyperfocus_cli&#45;&gt;hyperfocus___main__ -->
<g id="edge1" class="edge">
<title>hyperfocus_cli&#45;&gt;hyperfocus___main__</title><style>.edge>path:hover{stroke-width:8}</style>
<path fill="none" stroke="black" d="M190.33,-78.08C190.33,-70.5 190.33,-61.39 190.33,-52.74"/>
<polygon fill="#993333" stroke="black" points="193.83,-52.56 190.33,-42.56 186.83,-52.56 193.83,-52.56"/>
</g>
<!-- hyperfocus_config -->
<g id="node3" class="node">
<title>hyperfocus_config</title><style>.edge>path:hover{stroke-width:8}</style>
<ellipse fill="#c43131" stroke="black" cx="52.33" cy="-250.07" rx="52.15" ry="21.43"/>
<text text-anchor="middle" x="52.33" y="-253.07" font-family="Helvetica,sans-Serif" font-size="10.00" fill="#ffffff">hyperfocus.</text>
<text text-anchor="middle" x="52.33" y="-242.07" font-family="Helvetica,sans-Serif" font-size="10.00" fill="#ffffff">config</text>
</g>
<!-- hyperfocus_config&#45;&gt;hyperfocus_cli -->
<g id="edge2" class="edge">
<title>hyperfocus_config&#45;&gt;hyperfocus_cli</title><style>.edge>path:hover{stroke-width:8}</style>
<path fill="none" stroke="black" d="M50.27,-228.71C49.21,-207.05 50.86,-172.89 68.33,-150.43 85.16,-128.78 112.62,-115.81 137.23,-108.13"/>
<polygon fill="#c43131" stroke="black" points="138.22,-111.49 146.85,-105.34 136.27,-104.76 138.22,-111.49"/>
</g>
<!-- hyperfocus_session -->
<g id="node9" class="node">
<title>hyperfocus_session</title><style>.edge>path:hover{stroke-width:8}</style>
<ellipse fill="#a83838" stroke="black" cx="129.33" cy="-171.64" rx="52.15" ry="21.43"/>
<text text-anchor="middle" x="129.33" y="-174.64" font-family="Helvetica,sans-Serif" font-size="10.00" fill="#ffffff">hyperfocus.</text>
<text text-anchor="middle" x="129.33" y="-163.64" font-family="Helvetica,sans-Serif" font-size="10.00" fill="#ffffff">session</text>
</g>
<!-- hyperfocus_config&#45;&gt;hyperfocus_session -->
<g id="edge3" class="edge">
<title>hyperfocus_config&#45;&gt;hyperfocus_session</title><style>.edge>path:hover{stroke-width:8}</style>
<path fill="none" stroke="black" d="M71.36,-230.17C80.89,-220.71 92.59,-209.11 102.97,-198.8"/>
<polygon fill="#c43131" stroke="black" points="105.61,-201.11 110.24,-191.58 100.68,-196.14 105.61,-201.11"/>
</g>
<!-- hyperfocus_database -->
<g id="node4" class="node">
<title>hyperfocus_database</title><style>.edge>path:hover{stroke-width:8}</style>
<ellipse fill="#db2f2f" stroke="black" cx="212.33" cy="-406.92" rx="52.15" ry="21.43"/>
<text text-anchor="middle" x="212.33" y="-409.92" font-family="Helvetica,sans-Serif" font-size="10.00" fill="#ffffff">hyperfocus.</text>
<text text-anchor="middle" x="212.33" y="-398.92" font-family="Helvetica,sans-Serif" font-size="10.00" fill="#ffffff">database</text>
</g>
<!-- hyperfocus_database&#45;&gt;hyperfocus_cli -->
<g id="edge4" class="edge">
<title>hyperfocus_database&#45;&gt;hyperfocus_cli</title><style>.edge>path:hover{stroke-width:8}</style>
<path fill="none" stroke="black" d="M236.24,-387.82C248.51,-377.63 262.99,-364.09 273.33,-349.71 321.72,-282.34 366.38,-248.28 332.33,-172.64"/>
</g>
<!-- hyperfocus_models -->
<g id="node7" class="node">
<title>hyperfocus_models</title><style>.edge>path:hover{stroke-width:8}</style>
<ellipse fill="#c82323" stroke="black" cx="212.33" cy="-328.49" rx="52.15" ry="21.43"/>
<text text-anchor="middle" x="212.33" y="-331.49" font-family="Helvetica,sans-Serif" font-size="10.00" fill="#ffffff">hyperfocus.</text>
<text text-anchor="middle" x="212.33" y="-320.49" font-family="Helvetica,sans-Serif" font-size="10.00" fill="#ffffff">models</text>
</g>
<!-- hyperfocus_database&#45;&gt;hyperfocus_models -->
<g id="edge5" class="edge">
<title>hyperfocus_database&#45;&gt;hyperfocus_models</title><style>.edge>path:hover{stroke-width:8}</style>
<path fill="none" stroke="black" d="M212.33,-385.44C212.33,-377.58 212.33,-368.44 212.33,-359.84"/>
<polygon fill="#db2f2f" stroke="black" points="215.83,-359.76 212.33,-349.76 208.83,-359.76 215.83,-359.76"/>
</g>
<!-- hyperfocus_database&#45;&gt;hyperfocus_session -->
<g id="edge6" class="edge">
<title>hyperfocus_database&#45;&gt;hyperfocus_session</title><style>.edge>path:hover{stroke-width:8}</style>
<path fill="none" stroke="black" d="M185.97,-388.44C173.36,-378.61 159.29,-365.2 151.33,-349.71 127.22,-302.82 125.44,-240.01 126.96,-203.18"/>
<polygon fill="#db2f2f" stroke="black" points="130.46,-203.24 127.49,-193.07 123.47,-202.87 130.46,-203.24"/>
</g>
<!-- hyperfocus_display -->
<g id="node5" class="node">
<title>hyperfocus_display</title><style>.edge>path:hover{stroke-width:8}</style>
<ellipse fill="#b83d3d" stroke="black" cx="252.33" cy="-171.64" rx="52.15" ry="21.43"/>
<text text-anchor="middle" x="252.33" y="-174.64" font-family="Helvetica,sans-Serif" font-size="10.00" fill="#ffffff">hyperfocus.</text>
<text text-anchor="middle" x="252.33" y="-163.64" font-family="Helvetica,sans-Serif" font-size="10.00" fill="#ffffff">display</text>
</g>
<!-- hyperfocus_display&#45;&gt;hyperfocus_cli -->
<g id="edge7" class="edge">
<title>hyperfocus_display&#45;&gt;hyperfocus_cli</title><style>.edge>path:hover{stroke-width:8}</style>
<path fill="none" stroke="black" d="M236.04,-151.4C228.3,-142.27 218.97,-131.25 210.77,-121.56"/>
<polygon fill="#b83d3d" stroke="black" points="213.33,-119.18 204.2,-113.81 207.99,-123.7 213.33,-119.18"/>
</g>
<!-- hyperfocus_exceptions -->
<g id="node6" class="node">
<title>hyperfocus_exceptions</title><style>.edge>path:hover{stroke-width:8}</style>
<ellipse fill="#ce3b3b" stroke="black" cx="80.33" cy="-406.92" rx="52.15" ry="21.43"/>
<text text-anchor="middle" x="80.33" y="-409.92" font-family="Helvetica,sans-Serif" font-size="10.00" fill="#ffffff">hyperfocus.</text>
<text text-anchor="middle" x="80.33" y="-398.92" font-family="Helvetica,sans-Serif" font-size="10.00" fill="#ffffff">exceptions</text>
</g>
<!-- hyperfocus_exceptions&#45;&gt;hyperfocus_config -->
<g id="edge8" class="edge">
<title>hyperfocus_exceptions&#45;&gt;hyperfocus_config</title><style>.edge>path:hover{stroke-width:8}</style>
<path fill="none" stroke="black" d="M76.67,-385.67C71.87,-359.13 63.4,-312.32 57.83,-281.49"/>
<polygon fill="#ce3b3b" stroke="black" points="61.21,-280.53 55.99,-271.32 54.32,-281.78 61.21,-280.53"/>
</g>
<!-- hyperfocus_exceptions&#45;&gt;hyperfocus_models -->
<g id="edge9" class="edge">
<title>hyperfocus_exceptions&#45;&gt;hyperfocus_models</title><style>.edge>path:hover{stroke-width:8}</style>
<path fill="none" stroke="black" d="M109.29,-389.15C128.47,-378.05 153.8,-363.38 174.55,-351.36"/>
<polygon fill="#ce3b3b" stroke="black" points="176.53,-354.27 183.43,-346.23 173.02,-348.21 176.53,-354.27"/>
</g>
<!-- hyperfocus_models&#45;&gt;hyperfocus_cli -->
<g id="edge10" class="edge">
<title>hyperfocus_models&#45;&gt;hyperfocus_cli</title><style>.edge>path:hover{stroke-width:8}</style>
<path fill="none" stroke="black" d="M294.33,-249.07C308.79,-214 347.9,-207.23 332.33,-172.64"/>
<path fill="none" stroke="black" d="M332.33,-170.64C316.78,-136.11 277.43,-117.59 244.09,-107.82"/>
<polygon fill="#c82323" stroke="black" points="244.99,-104.44 234.42,-105.18 243.14,-111.19 244.99,-104.44"/>
</g>
<!-- hyperfocus_models&#45;&gt;hyperfocus_display -->
<g id="edge11" class="edge">
<title>hyperfocus_models&#45;&gt;hyperfocus_display</title><style>.edge>path:hover{stroke-width:8}</style>
<path fill="none" stroke="black" d="M240.77,-310.44C260.05,-297.04 283.87,-276.43 294.33,-251.07"/>
<path fill="none" stroke="black" d="M294.33,-249.07C301.48,-231.71 291.85,-213.23 280.01,-198.79"/>
<polygon fill="#c82323" stroke="black" points="282.55,-196.38 273.3,-191.22 277.31,-201.02 282.55,-196.38"/>
</g>
<!-- hyperfocus_services -->
<g id="node8" class="node">
<title>hyperfocus_services</title><style>.edge>path:hover{stroke-width:8}</style>
<ellipse fill="#b83d3d" stroke="black" cx="212.33" cy="-250.07" rx="52.15" ry="21.43"/>
<text text-anchor="middle" x="212.33" y="-253.07" font-family="Helvetica,sans-Serif" font-size="10.00" fill="#ffffff">hyperfocus.</text>
<text text-anchor="middle" x="212.33" y="-242.07" font-family="Helvetica,sans-Serif" font-size="10.00" fill="#ffffff">services</text>
</g>
<!-- hyperfocus_models&#45;&gt;hyperfocus_services -->
<g id="edge12" class="edge">
<title>hyperfocus_models&#45;&gt;hyperfocus_services</title><style>.edge>path:hover{stroke-width:8}</style>
<path fill="none" stroke="black" d="M212.33,-307.01C212.33,-299.15 212.33,-290.01 212.33,-281.42"/>
<polygon fill="#c82323" stroke="black" points="215.83,-281.34 212.33,-271.34 208.83,-281.34 215.83,-281.34"/>
</g>
<!-- hyperfocus_services&#45;&gt;hyperfocus_session -->
<g id="edge13" class="edge">
<title>hyperfocus_services&#45;&gt;hyperfocus_session</title><style>.edge>path:hover{stroke-width:8}</style>
<path fill="none" stroke="black" d="M191.81,-230.17C181.36,-220.55 168.49,-208.7 157.16,-198.27"/>
<polygon fill="#b83d3d" stroke="black" points="159.33,-195.51 149.61,-191.31 154.59,-200.66 159.33,-195.51"/>
</g>
<!-- hyperfocus_session&#45;&gt;hyperfocus_cli -->
<g id="edge14" class="edge">
<title>hyperfocus_session&#45;&gt;hyperfocus_cli</title><style>.edge>path:hover{stroke-width:8}</style>
<path fill="none" stroke="black" d="M145.35,-151.4C152.96,-142.27 162.14,-131.25 170.22,-121.56"/>
<polygon fill="#a83838" stroke="black" points="172.97,-123.73 176.68,-113.81 167.59,-119.25 172.97,-123.73"/>
</g>
</g>
</svg>
