<?xml version="1.0" encoding="UTF-8" standalone="no"?>
<!DOCTYPE svg PUBLIC "-//W3C//DTD SVG 1.1//EN"
 "http://www.w3.org/Graphics/SVG/1.1/DTD/svg11.dtd">
<!-- Generated by graphviz version 2.43.0 (0)
 -->
<!-- Title: G Pages: 1 -->
<svg width="520pt" height="508pt"
 viewBox="0.00 0.00 519.52 508.13" xmlns="http://www.w3.org/2000/svg" xmlns:xlink="http://www.w3.org/1999/xlink">
<g id="graph0" class="graph" transform="scale(1 1) rotate(0) translate(4 504.13)">
<title>G</title><style>.edge>path:hover{stroke-width:8}</style>
<polygon fill="white" stroke="transparent" points="-4,4 -4,-504.13 515.52,-504.13 515.52,4 -4,4"/>
<!-- hyperfocus___main__ -->
<g id="node1" class="node">
<title>hyperfocus___main__</title><style>.edge>path:hover{stroke-width:8}</style>
<ellipse fill="#ac4949" stroke="black" cx="356.29" cy="-21.21" rx="52.15" ry="21.43"/>
<text text-anchor="middle" x="356.29" y="-24.21" font-family="Helvetica,sans-Serif" font-size="10.00" fill="#ffffff">hyperfocus.</text>
<text text-anchor="middle" x="356.29" y="-13.21" font-family="Helvetica,sans-Serif" font-size="10.00" fill="#ffffff">__main__</text>
</g>
<!-- hyperfocus_app -->
<g id="node2" class="node">
<title>hyperfocus_app</title><style>.edge>path:hover{stroke-width:8}</style>
<ellipse fill="#b03a3a" stroke="black" cx="356.29" cy="-168.43" rx="54.31" ry="18"/>
<text text-anchor="middle" x="356.29" y="-165.93" font-family="Helvetica,sans-Serif" font-size="10.00" fill="#ffffff">hyperfocus.app</text>
</g>
<!-- hyperfocus_cli -->
<g id="node3" class="node">
<title>hyperfocus_cli</title><style>.edge>path:hover{stroke-width:8}</style>
<ellipse fill="#822b2b" stroke="black" cx="356.29" cy="-96.43" rx="50.07" ry="18"/>
<text text-anchor="middle" x="356.29" y="-93.93" font-family="Helvetica,sans-Serif" font-size="10.00" fill="#ffffff">hyperfocus.cli</text>
</g>
<!-- hyperfocus_app&#45;&gt;hyperfocus_cli -->
<g id="edge1" class="edge">
<title>hyperfocus_app&#45;&gt;hyperfocus_cli</title><style>.edge>path:hover{stroke-width:8}</style>
<path fill="none" stroke="black" d="M356.29,-150.12C356.29,-142.41 356.29,-133.14 356.29,-124.54"/>
<polygon fill="#b03a3a" stroke="black" points="359.79,-124.53 356.29,-114.53 352.79,-124.53 359.79,-124.53"/>
</g>
<!-- hyperfocus_cli&#45;&gt;hyperfocus___main__ -->
<g id="edge2" class="edge">
<title>hyperfocus_cli&#45;&gt;hyperfocus___main__</title><style>.edge>path:hover{stroke-width:8}</style>
<path fill="none" stroke="black" d="M356.29,-78.08C356.29,-70.5 356.29,-61.39 356.29,-52.74"/>
<polygon fill="#822b2b" stroke="black" points="359.79,-52.56 356.29,-42.56 352.79,-52.56 359.79,-52.56"/>
</g>
<!-- hyperfocus_config -->
<g id="node4" class="node">
<title>hyperfocus_config</title><style>.edge>path:hover{stroke-width:8}</style>
<ellipse fill="#c43131" stroke="black" cx="67.29" cy="-322.07" rx="52.15" ry="21.43"/>
<text text-anchor="middle" x="67.29" y="-325.07" font-family="Helvetica,sans-Serif" font-size="10.00" fill="#ffffff">hyperfocus.</text>
<text text-anchor="middle" x="67.29" y="-314.07" font-family="Helvetica,sans-Serif" font-size="10.00" fill="#ffffff">config</text>
</g>
<!-- hyperfocus_config&#45;&gt;hyperfocus_cli -->
<g id="edge3" class="edge">
<title>hyperfocus_config&#45;&gt;hyperfocus_cli</title><style>.edge>path:hover{stroke-width:8}</style>
<path fill="none" stroke="black" d="M64.72,-300.65C63.38,-285.08 62.82,-263.22 67.29,-244.64"/>
</g>
<!-- hyperfocus_session -->
<g id="node11" class="node">
<title>hyperfocus_session</title><style>.edge>path:hover{stroke-width:8}</style>
<ellipse fill="#a13535" stroke="black" cx="147.29" cy="-243.64" rx="52.15" ry="21.43"/>
<text text-anchor="middle" x="147.29" y="-246.64" font-family="Helvetica,sans-Serif" font-size="10.00" fill="#ffffff">hyperfocus.</text>
<text text-anchor="middle" x="147.29" y="-235.64" font-family="Helvetica,sans-Serif" font-size="10.00" fill="#ffffff">session</text>
</g>
<!-- hyperfocus_config&#45;&gt;hyperfocus_session -->
<g id="edge4" class="edge">
<title>hyperfocus_config&#45;&gt;hyperfocus_session</title><style>.edge>path:hover{stroke-width:8}</style>
<path fill="none" stroke="black" d="M87.06,-302.17C97.06,-292.62 109.35,-280.88 120.21,-270.5"/>
<polygon fill="#c43131" stroke="black" points="122.65,-273.02 127.46,-263.58 117.81,-267.96 122.65,-273.02"/>
</g>
<!-- hyperfocus_database -->
<g id="node5" class="node">
<title>hyperfocus_database</title><style>.edge>path:hover{stroke-width:8}</style>
<ellipse fill="#db2f2f" stroke="black" cx="418.29" cy="-478.92" rx="52.15" ry="21.43"/>
<text text-anchor="middle" x="418.29" y="-481.92" font-family="Helvetica,sans-Serif" font-size="10.00" fill="#ffffff">hyperfocus.</text>
<text text-anchor="middle" x="418.29" y="-470.92" font-family="Helvetica,sans-Serif" font-size="10.00" fill="#ffffff">database</text>
</g>
<!-- hyperfocus_database&#45;&gt;hyperfocus_cli -->
<g id="edge5" class="edge">
<title>hyperfocus_database&#45;&gt;hyperfocus_cli</title><style>.edge>path:hover{stroke-width:8}</style>
<path fill="none" stroke="black" d="M437.81,-458.96C447.62,-448.63 459.14,-435.23 467.29,-421.71 491.54,-381.47 492.24,-368.2 505.29,-323.07"/>
</g>
<!-- hyperfocus_models -->
<g id="node8" class="node">
<title>hyperfocus_models</title><style>.edge>path:hover{stroke-width:8}</style>
<ellipse fill="#d31717" stroke="black" cx="406.29" cy="-400.49" rx="52.15" ry="21.43"/>
<text text-anchor="middle" x="406.29" y="-403.49" font-family="Helvetica,sans-Serif" font-size="10.00" fill="#ffffff">hyperfocus.</text>
<text text-anchor="middle" x="406.29" y="-392.49" font-family="Helvetica,sans-Serif" font-size="10.00" fill="#ffffff">models</text>
</g>
<!-- hyperfocus_database&#45;&gt;hyperfocus_models -->
<g id="edge6" class="edge">
<title>hyperfocus_database&#45;&gt;hyperfocus_models</title><style>.edge>path:hover{stroke-width:8}</style>
<path fill="none" stroke="black" d="M415.07,-457.44C413.84,-449.58 412.4,-440.44 411.05,-431.84"/>
<polygon fill="#db2f2f" stroke="black" points="414.48,-431.1 409.47,-421.76 407.56,-432.19 414.48,-431.1"/>
</g>
<!-- hyperfocus_database&#45;&gt;hyperfocus_session -->
<g id="edge7" class="edge">
<title>hyperfocus_database&#45;&gt;hyperfocus_session</title><style>.edge>path:hover{stroke-width:8}</style>
<path fill="none" stroke="black" d="M378.74,-464.9C301.27,-438.17 137.8,-375.25 147.29,-323.07"/>
</g>
<!-- hyperfocus_exceptions -->
<g id="node6" class="node">
<title>hyperfocus_exceptions</title><style>.edge>path:hover{stroke-width:8}</style>
<ellipse fill="#f31616" stroke="black" cx="295.29" cy="-478.92" rx="52.15" ry="21.43"/>
<text text-anchor="middle" x="295.29" y="-481.92" font-family="Helvetica,sans-Serif" font-size="10.00" fill="#ffffff">hyperfocus.</text>
<text text-anchor="middle" x="295.29" y="-470.92" font-family="Helvetica,sans-Serif" font-size="10.00" fill="#ffffff">exceptions</text>
</g>
<!-- hyperfocus_exceptions&#45;&gt;hyperfocus_app -->
<g id="edge8" class="edge">
<title>hyperfocus_exceptions&#45;&gt;hyperfocus_app</title><style>.edge>path:hover{stroke-width:8}</style>
<path fill="none" stroke="black" d="M299.16,-457.7C307.46,-414.48 327.64,-309.93 345.29,-222.43 346.99,-214.01 348.87,-204.84 350.6,-196.54"/>
<polygon fill="#f31616" stroke="black" points="354.06,-197.11 352.67,-186.6 347.2,-195.68 354.06,-197.11"/>
</g>
<!-- hyperfocus_exceptions&#45;&gt;hyperfocus_cli -->
<g id="edge9" class="edge">
<title>hyperfocus_exceptions&#45;&gt;hyperfocus_cli</title><style>.edge>path:hover{stroke-width:8}</style>
<path fill="none" stroke="black" d="M244.91,-472.56C197.78,-464.86 128.75,-446.25 88.29,-401.49"/>
<path fill="none" stroke="black" d="M88.29,-399.49C58.65,-366.72 26.88,-382.37 6.29,-343.28 -2.5,-326.6 -1.28,-318.12 6.29,-300.85 21.09,-267.09 58.67,-280.49 67.29,-244.64"/>
<path fill="none" stroke="black" d="M67.29,-242.64C73.55,-210.71 54.05,-199.15 67.29,-169.43"/>
<path fill="none" stroke="black" d="M67.29,-167.43C85.95,-125.51 218.05,-108.05 297.05,-101.3"/>
<polygon fill="#f31616" stroke="black" points="297.67,-104.76 307.35,-100.45 297.1,-97.78 297.67,-104.76"/>
</g>
<!-- hyperfocus_exceptions&#45;&gt;hyperfocus_config -->
<g id="edge10" class="edge">
<title>hyperfocus_exceptions&#45;&gt;hyperfocus_config</title><style>.edge>path:hover{stroke-width:8}</style>
<path fill="none" stroke="black" d="M88.29,-399.49C76.96,-386.97 71.67,-368.9 69.23,-353.47"/>
<polygon fill="#f31616" stroke="black" points="72.67,-352.8 67.95,-343.31 65.73,-353.67 72.67,-352.8"/>
</g>
<!-- hyperfocus_exceptions&#45;&gt;hyperfocus_models -->
<g id="edge11" class="edge">
<title>hyperfocus_exceptions&#45;&gt;hyperfocus_models</title><style>.edge>path:hover{stroke-width:8}</style>
<path fill="none" stroke="black" d="M320.75,-460.39C336.01,-449.88 355.61,-436.38 372.2,-424.96"/>
<polygon fill="#f31616" stroke="black" points="374.3,-427.76 380.56,-419.21 370.33,-422 374.3,-427.76"/>
</g>
<!-- hyperfocus_exceptions&#45;&gt;hyperfocus_session -->
<g id="edge12" class="edge">
<title>hyperfocus_exceptions&#45;&gt;hyperfocus_session</title><style>.edge>path:hover{stroke-width:8}</style>
<path fill="none" stroke="black" d="M88.29,-399.49C59.51,-367.66 139.61,-365.28 147.29,-323.07"/>
<path fill="none" stroke="black" d="M147.29,-321.07C150.01,-306.09 150.29,-289.18 149.78,-275.08"/>
<polygon fill="#f31616" stroke="black" points="153.26,-274.74 149.25,-264.93 146.27,-275.1 153.26,-274.74"/>
</g>
<!-- hyperfocus_formatter -->
<g id="node7" class="node">
<title>hyperfocus_formatter</title><style>.edge>path:hover{stroke-width:8}</style>
<ellipse fill="#c43131" stroke="black" cx="425.29" cy="-322.07" rx="52.15" ry="21.43"/>
<text text-anchor="middle" x="425.29" y="-325.07" font-family="Helvetica,sans-Serif" font-size="10.00" fill="#ffffff">hyperfocus.</text>
<text text-anchor="middle" x="425.29" y="-314.07" font-family="Helvetica,sans-Serif" font-size="10.00" fill="#ffffff">formatter</text>
</g>
<!-- hyperfocus_formatter&#45;&gt;hyperfocus_cli -->
<g id="edge13" class="edge">
<title>hyperfocus_formatter&#45;&gt;hyperfocus_cli</title><style>.edge>path:hover{stroke-width:8}</style>
<path fill="none" stroke="black" d="M455.38,-304.6C475.33,-291.48 498.96,-270.97 505.29,-244.64"/>
<path fill="none" stroke="black" d="M505.29,-242.64C512.89,-211 513.94,-200.79 505.29,-169.43"/>
</g>
<!-- hyperfocus_printer -->
<g id="node9" class="node">
<title>hyperfocus_printer</title><style>.edge>path:hover{stroke-width:8}</style>
<ellipse fill="#bc2f2f" stroke="black" cx="406.29" cy="-243.64" rx="52.15" ry="21.43"/>
<text text-anchor="middle" x="406.29" y="-246.64" font-family="Helvetica,sans-Serif" font-size="10.00" fill="#ffffff">hyperfocus.</text>
<text text-anchor="middle" x="406.29" y="-235.64" font-family="Helvetica,sans-Serif" font-size="10.00" fill="#ffffff">printer</text>
</g>
<!-- hyperfocus_formatter&#45;&gt;hyperfocus_printer -->
<g id="edge14" class="edge">
<title>hyperfocus_formatter&#45;&gt;hyperfocus_printer</title><style>.edge>path:hover{stroke-width:8}</style>
<path fill="none" stroke="black" d="M420.2,-300.59C418.22,-292.64 415.92,-283.38 413.76,-274.71"/>
<polygon fill="#c43131" stroke="black" points="417.14,-273.77 411.33,-264.91 410.34,-275.46 417.14,-273.77"/>
</g>
<!-- hyperfocus_models&#45;&gt;hyperfocus_cli -->
<g id="edge15" class="edge">
<title>hyperfocus_models&#45;&gt;hyperfocus_cli</title><style>.edge>path:hover{stroke-width:8}</style>
<path fill="none" stroke="black" d="M442.6,-385.14C467.2,-372.96 496.72,-352.69 505.29,-323.07"/>
<path fill="none" stroke="black" d="M505.29,-321.07C514.72,-288.44 497.35,-277.67 505.29,-244.64"/>
</g>
<!-- hyperfocus_models&#45;&gt;hyperfocus_formatter -->
<g id="edge16" class="edge">
<title>hyperfocus_models&#45;&gt;hyperfocus_formatter</title><style>.edge>path:hover{stroke-width:8}</style>
<path fill="none" stroke="black" d="M411.38,-379.01C413.35,-371.07 415.66,-361.81 417.81,-353.14"/>
<polygon fill="#d31717" stroke="black" points="421.23,-353.89 420.25,-343.34 414.44,-352.2 421.23,-353.89"/>
</g>
<!-- hyperfocus_models&#45;&gt;hyperfocus_printer -->
<g id="edge17" class="edge">
<title>hyperfocus_models&#45;&gt;hyperfocus_printer</title><style>.edge>path:hover{stroke-width:8}</style>
<path fill="none" stroke="black" d="M387.22,-380.5C378.41,-370.37 368.9,-357.15 364.29,-343.28 358.34,-325.39 358.34,-318.75 364.29,-300.85 367.78,-290.34 374.09,-280.2 380.78,-271.5"/>
<polygon fill="#d31717" stroke="black" points="383.6,-273.59 387.22,-263.63 378.18,-269.15 383.6,-273.59"/>
</g>
<!-- hyperfocus_services -->
<g id="node10" class="node">
<title>hyperfocus_services</title><style>.edge>path:hover{stroke-width:8}</style>
<ellipse fill="#b83d3d" stroke="black" cx="227.29" cy="-322.07" rx="52.15" ry="21.43"/>
<text text-anchor="middle" x="227.29" y="-325.07" font-family="Helvetica,sans-Serif" font-size="10.00" fill="#ffffff">hyperfocus.</text>
<text text-anchor="middle" x="227.29" y="-314.07" font-family="Helvetica,sans-Serif" font-size="10.00" fill="#ffffff">services</text>
</g>
<!-- hyperfocus_models&#45;&gt;hyperfocus_services -->
<g id="edge18" class="edge">
<title>hyperfocus_models&#45;&gt;hyperfocus_services</title><style>.edge>path:hover{stroke-width:8}</style>
<path fill="none" stroke="black" d="M371.35,-384.58C342.77,-372.37 302.18,-355.04 271.36,-341.88"/>
<polygon fill="#d31717" stroke="black" points="272.71,-338.65 262.14,-337.95 269.96,-345.09 272.71,-338.65"/>
</g>
<!-- hyperfocus_printer&#45;&gt;hyperfocus_app -->
<g id="edge19" class="edge">
<title>hyperfocus_printer&#45;&gt;hyperfocus_app</title><style>.edge>path:hover{stroke-width:8}</style>
<path fill="none" stroke="black" d="M392.89,-223.02C386.93,-214.29 379.83,-203.9 373.48,-194.61"/>
<polygon fill="#bc2f2f" stroke="black" points="376.22,-192.4 367.69,-186.12 370.44,-196.35 376.22,-192.4"/>
</g>
<!-- hyperfocus_printer&#45;&gt;hyperfocus_cli -->
<g id="edge20" class="edge">
<title>hyperfocus_printer&#45;&gt;hyperfocus_cli</title><style>.edge>path:hover{stroke-width:8}</style>
<path fill="none" stroke="black" d="M448.47,-230.94C479.07,-219.76 513.73,-200.03 505.29,-169.43"/>
<path fill="none" stroke="black" d="M505.29,-167.43C494.69,-129.02 451.45,-111.69 414.27,-103.86"/>
<polygon fill="#bc2f2f" stroke="black" points="414.45,-100.33 403.97,-101.9 413.14,-107.21 414.45,-100.33"/>
</g>
<!-- hyperfocus_services&#45;&gt;hyperfocus_session -->
<g id="edge21" class="edge">
<title>hyperfocus_services&#45;&gt;hyperfocus_session</title><style>.edge>path:hover{stroke-width:8}</style>
<path fill="none" stroke="black" d="M207.51,-302.17C197.51,-292.62 185.22,-280.88 174.36,-270.5"/>
<polygon fill="#b83d3d" stroke="black" points="176.76,-267.96 167.11,-263.58 171.93,-273.02 176.76,-267.96"/>
</g>
<!-- hyperfocus_session&#45;&gt;hyperfocus_cli -->
<g id="edge22" class="edge">
<title>hyperfocus_session&#45;&gt;hyperfocus_cli</title><style>.edge>path:hover{stroke-width:8}</style>
<path fill="none" stroke="black" d="M110.8,-228.26C84.66,-215.51 55.91,-194.97 67.29,-169.43"/>
</g>
</g>
</svg>
